<mxfile host="app.diagrams.net" modified="2024-09-04T22:59:20.346Z" agent="Mozilla/5.0 (X11; Linux x86_64; rv:129.0) Gecko/20100101 Firefox/129.0" etag="6Uthho1y3R4MMiVJsbE7" version="24.2.5" type="device">
  <diagram name="PÃ¡gina-1" id="NbjvPM99QzzsCf4SeaPc">
    <mxGraphModel dx="819" dy="431" grid="1" gridSize="10" guides="1" tooltips="1" connect="1" arrows="1" fold="1" page="1" pageScale="1" pageWidth="827" pageHeight="1169" math="0" shadow="0">
      <root>
        <mxCell id="0" />
        <mxCell id="1" parent="0" />
        <mxCell id="o38lKWgC2H8DE1hVrIqf-1" value="" style="rounded=0;whiteSpace=wrap;html=1;fillColor=#F89F9F;strokeColor=#b85450;" vertex="1" parent="1">
          <mxGeometry x="260" y="190" width="250" height="200" as="geometry" />
        </mxCell>
        <mxCell id="o38lKWgC2H8DE1hVrIqf-3" value="Simulador satelital" style="text;strokeColor=none;align=center;fillColor=none;html=1;verticalAlign=middle;whiteSpace=wrap;rounded=0;" vertex="1" parent="1">
          <mxGeometry x="260" y="190" width="250" height="30" as="geometry" />
        </mxCell>
        <mxCell id="o38lKWgC2H8DE1hVrIqf-4" value="" style="rounded=0;whiteSpace=wrap;html=1;fillColor=#f8cecc;strokeColor=#b85450;" vertex="1" parent="1">
          <mxGeometry x="290" y="220" width="210" height="160" as="geometry" />
        </mxCell>
        <mxCell id="o38lKWgC2H8DE1hVrIqf-2" value="" style="rounded=0;whiteSpace=wrap;html=1;fillColor=#ffe6cc;strokeColor=#d79b00;" vertex="1" parent="1">
          <mxGeometry x="320" y="250" width="170" height="120" as="geometry" />
        </mxCell>
        <mxCell id="o38lKWgC2H8DE1hVrIqf-5" value="Computadora a bordo simulada" style="text;strokeColor=none;align=center;fillColor=none;html=1;verticalAlign=middle;whiteSpace=wrap;rounded=0;" vertex="1" parent="1">
          <mxGeometry x="290" y="220" width="210" height="30" as="geometry" />
        </mxCell>
        <mxCell id="o38lKWgC2H8DE1hVrIqf-6" value="" style="rounded=0;whiteSpace=wrap;html=1;fillColor=#fff2cc;strokeColor=#d6b656;" vertex="1" parent="1">
          <mxGeometry x="340" y="280" width="140" height="80" as="geometry" />
        </mxCell>
        <mxCell id="o38lKWgC2H8DE1hVrIqf-8" value="Emulador de CPU" style="text;strokeColor=none;align=center;fillColor=none;html=1;verticalAlign=middle;whiteSpace=wrap;rounded=0;" vertex="1" parent="1">
          <mxGeometry x="320" y="250" width="170" height="30" as="geometry" />
        </mxCell>
        <mxCell id="o38lKWgC2H8DE1hVrIqf-9" value="Software de vuelo" style="text;strokeColor=none;align=center;fillColor=none;html=1;verticalAlign=middle;whiteSpace=wrap;rounded=0;" vertex="1" parent="1">
          <mxGeometry x="340" y="305" width="140" height="30" as="geometry" />
        </mxCell>
      </root>
    </mxGraphModel>
  </diagram>
</mxfile>
